<svg
  viewBox="0 0 4104 1640"
  preserveAspectRatio="xMidYMid meet"
  xmlns="http://www.w3.org/2000/svg"
>
<path 
id = "archipel_lezrus"
d="M3276.88 1004.81L3276.89 1004.82C3277.38 1005.24 3278.36 1006.08 3279.71 1007.44C3280.67 1008.39 3281.86 1008.88 3282.98 1009.51C3284.24 1010.22 3285.22 1011.13 3286.31 1012.18C3287.31 1013.14 3287.82 1014.42 3288.35 1015.55C3288.98 1016.88 3290 1017.79 3290.74 1018.74C3291.5 1019.72 3291.9 1020.95 3292.46 1022.08C3293.02 1023.2 3293.44 1024.32 3293.48 1027.54C3293.5 1029.14 3292.53 1030.22 3292.18 1031.38C3291.48 1033.68 3291.9 1036.96 3292.11 1038.12C3292.36 1039.51 3292.74 1040.75 3292.92 1041.87C3293.1 1043.01 3293.3 1044.12 3293.48 1045.28C3293.67 1046.56 3293.3 1048.39 3293.13 1049.87C3293 1051 3292.74 1052.12 3292.64 1053.94C3292.51 1056.05 3292.32 1058.86 3292.04 1060.02C3291.73 1061.31 3291.2 1062.3 3290.74 1063.35C3290.25 1064.49 3289.66 1065.6 3289.27 1066.9C3288.9 1068.12 3288.32 1069.18 3287.83 1070.3C3287.34 1071.43 3287.06 1072.55 3286.53 1073.67C3285.96 1074.89 3285.23 1075.92 3284.71 1077.04C3284.46 1077.57 3284.46 1078.51 3284.56 1079.56C3284.7 1080.9 3286.28 1081.81 3287.23 1082.73C3288.18 1083.64 3288.95 1084.55 3289.89 1085.46C3290.77 1086.31 3291.61 1087.15 3292.63 1087.82C3293.64 1088.48 3294.7 1089.25 3295.83 1089.71C3297.12 1090.24 3298.49 1090.87 3299.62 1091.4C3300.91 1092 3301.86 1093.12 3302.74 1094.48C3303.55 1095.74 3303.76 1096.97 3304.25 1098.13C3304.78 1099.37 3304.81 1100.52 3304.85 1101.66L3304.85 1101.71C3304.87 1102.39 3304.81 1103.01 3305.16 1103.5C3305.91 1104.56 3307.76 1104.14 3308.95 1104.38C3310.41 1104.69 3311.55 1104.98 3312.67 1105.51C3313.89 1106.08 3314.78 1106.94 3315.45 1108C3316.15 1109.1 3316.67 1110.1 3317.38 1111.12C3318.13 1112.21 3319.83 1112.63 3321.13 1113.02C3322.39 1113.39 3323.69 1113.61 3324.85 1114.14C3325.94 1114.63 3326.57 1116.34 3326.96 1118.1C3327.35 1119.87 3326.79 1121.33 3326.37 1121.86C3325.57 1122.85 3324.12 1123.23 3323 1123.58C3321.52 1124.05 3319.49 1123.93 3314.1 1124.14C3310.02 1124.3 3313.03 1135.09 3313.34 1136.22C3313.68 1137.41 3314.29 1138.46 3315.17 1139.55C3316.01 1140.6 3317.23 1141.62 3318.29 1142.57C3319.21 1143.4 3319.69 1144.57 3320.22 1145.69C3320.75 1146.83 3321.03 1148.15 3321.49 1149.27C3321.92 1150.35 3321.94 1151.79 3322.12 1153.31C3322.39 1155.65 3321.59 1156.78 3321.31 1157.91C3321.03 1159.05 3320.54 1160.15 3320.12 1161.31C3319.67 1162.54 3319.56 1163.73 3319 1164.86C3318.39 1166.06 3316.97 1167.73 3315.8 1168.86C3314.82 1169.82 3313.6 1170.4 3312.47 1170.93C3311.41 1171.43 3310.23 1171.53 3308.93 1171.67C3307.67 1171.8 3306.65 1172.58 3305.52 1173.04C3303.69 1173.78 3300.75 1173 3299.66 1172.06C3298.72 1171.24 3298.29 1169.99 3297.76 1168.66C3297.25 1167.36 3296.95 1166.2 3296.85 1164.55C3296.76 1163.17 3296.39 1161.78 3296.04 1160.65C3295.66 1159.44 3294.78 1158.06 3294.22 1156.69C3293.29 1154.42 3292.6 1152.93 3292.01 1151.81C3291.39 1150.65 3291.06 1149.56 3290.81 1147.6C3290.36 1143.97 3290.99 1142.68 3290.71 1141.42C3290.34 1139.76 3289.45 1138.61 3289.13 1137.42C3288.69 1135.78 3288.39 1134.19 3287.97 1133.03C3287.45 1131.61 3286.78 1130.26 3286.32 1129.06C3285.88 1127.9 3285.51 1125.71 3285.76 1124.01C3285.93 1122.78 3286.7 1121.76 3287.33 1120.64C3288.02 1119.41 3289.09 1117.7 3290.11 1116.46C3290.9 1115.5 3291.96 1114.88 3293.05 1114.11C3293.56 1113.75 3293.86 1113.2 3294.07 1112.32C3294.71 1109.69 3293.72 1108.5 3293.1 1107.02C3292.52 1105.68 3291.27 1104.71 3290.36 1103.58C3289.51 1102.53 3288.95 1101.55 3287.34 1099.79C3286.36 1098.72 3284.96 1098.81 3283.41 1098.56C3282.1 1098.35 3281.02 1098.59 3280.46 1098.63C3279.1 1098.72 3278.28 1096.7 3277.41 1095.41C3276.71 1094.37 3276.39 1093.12 3275.79 1092C3275.14 1090.78 3274 1089.76 3273.09 1088.81C3272.14 1087.82 3270.92 1087.36 3269.34 1086.8C3267.92 1086.3 3266.63 1085.82 3265.51 1085.5C3264.35 1085.17 3263.19 1084.63 3262.35 1083.72C3261.35 1082.63 3261.44 1080.84 3261.08 1079.58C3260.74 1078.33 3259.61 1077.26 3259.01 1076.03C3258.5 1074.98 3259.12 1073.75 3259.12 1070.81C3259.12 1068.94 3258.63 1067.58 3258.35 1066.13C3258.11 1064.9 3257.65 1063.64 3256.77 1061.61C3256.16 1060.2 3255.96 1059.01 3255.43 1057.71C3254.92 1056.43 3254.42 1055.01 3253.96 1053.88C3252.44 1050.13 3253.43 1042.79 3252.56 1041.67C3251.81 1040.71 3251.68 1039.42 3251.26 1038.3C3250.86 1037.24 3250.97 1035.78 3251.25 1034.3C3251.53 1032.82 3252.93 1031.7 3253.92 1030.33C3254.78 1029.14 3255.95 1028.05 3257.43 1027.17C3258.58 1026.49 3260.16 1025.88 3261.53 1024.79C3262.9 1023.71 3263.61 1022.72 3264.38 1021.84C3264.75 1021.41 3264.73 1020.75 3264.8 1020.19C3264.95 1019.04 3263.82 1018.08 3263.02 1017.03C3262.22 1015.99 3261.93 1014.65 3261.75 1012.96C3261.47 1010.3 3262.49 1009.31 3263.4 1008.29C3264.31 1007.27 3266.06 1007.06 3267.19 1006.5C3268.77 1005.71 3270.48 1004.25 3271.75 1004.01C3272.72 1003.97 3273.58 1004.11 3274.2 1004.32C3274.56 1004.39 3274.97 1004.39 3275.4 1004.39" stroke="#0088FF" stroke-width="2" stroke-linecap="round"
fill = "transparent"
style = "cursor : pointer"
pointer-events="all"
/>
</svg>